<?xml version="1.0" standalone="no"?>
<!DOCTYPE svg PUBLIC "-//W3C//DTD SVG 20010904//EN"
 "http://www.w3.org/TR/2001/REC-SVG-20010904/DTD/svg10.dtd">
<svg version="1.0" xmlns="http://www.w3.org/2000/svg"
 width="216.000000pt" height="216.000000pt" viewBox="0 0 216.000000 216.000000"
 preserveAspectRatio="xMidYMid meet">
<metadata>
Created by potrace 1.14, written by Peter Selinger 2001-2017
</metadata>
<g transform="translate(0.000000,216.000000) scale(0.100000,-0.100000)"
fill="#000000" stroke="none">
<path d="M958 1785 c-2 -2 -16 -5 -33 -8 -35 -6 -114 -25 -135 -34 -8 -4 -17
-7 -20 -8 -108 -37 -257 -154 -328 -258 -90 -130 -110 -339 -52 -545 20 -73
78 -204 92 -210 5 -2 8 -10 8 -17 0 -8 6 -20 13 -27 7 -7 24 -29 37 -48 80
-114 173 -191 278 -231 54 -20 187 -29 232 -17 8 3 35 11 60 18 25 7 50 14 55
15 34 8 250 127 288 159 14 11 42 35 63 51 64 50 170 162 212 226 85 127 106
265 60 409 -11 35 -57 131 -67 140 -4 3 -13 17 -21 31 -93 164 -288 298 -495
341 -47 10 -240 20 -247 13z"/>
</g>
</svg>
